<?xml version="1.0" standalone="no"?><!DOCTYPE svg PUBLIC "-//W3C//DTD SVG 1.1//EN" "http://www.w3.org/Graphics/SVG/1.1/DTD/svg11.dtd"><svg t="1490153229496" class="icon" style="" viewBox="0 0 1024 1024" version="1.1" xmlns="http://www.w3.org/2000/svg" p-id="2054" xmlns:xlink="http://www.w3.org/1999/xlink" width="200" height="200"><defs><style type="text/css"></style></defs><path d="M767.134 483.689c21.21-29.69 33.936-67.338 33.936-107.635 0-97.561-72.64-176.566-162.78-176.566-7.421 0-15.906 0-25.982 0v-136.8c0-7.953-6.365-14.317-14.317-14.317h-47.189c-7.953 0-14.317 6.365-14.317 14.317v136.8h-75.293v-136.8c0-7.953-6.365-14.317-14.317-14.317h-47.189c-7.953 0-14.317 6.365-14.317 14.317v136.8h-154.826c-7.953 0-14.317 6.365-14.317 14.317v47.718c0 7.421 5.302 13.786 12.725 14.317 53.023 4.771 81.651 40.298 81.651 84.306v292.15c0 39.236-20.145 70.522-64.687 74.759-6.365 0.527-11.664 5.302-12.725 11.134l-9.012 48.254c-1.589 8.483 4.771 16.439 13.786 16.439h147.931v136.265c0 7.953 6.365 14.317 14.317 14.317h47.189c7.953 0 14.317-6.365 14.317-14.317v-136.8h75.293v136.8c0 7.953 6.365 14.317 14.317 14.317h47.189c7.953 0 14.317-6.365 14.317-14.317v-136.8c26.512 0 48.782 0 63.627 0 89.607 0 162.78-77.941 162.78-174.446-0.527-59.917-29.165-112.94-72.11-144.219zM461.733 311.898c0 0 72.64 0 115.59 0s77.941 34.991 77.941 77.941-34.991 77.941-77.941 77.941c-42.951 0-115.59 0-115.59 0v-155.885zM614.437 694.186c-42.951 0-153.235 0-153.235 0v-155.354c0 0 110.287 0 153.235 0s77.941 34.991 77.941 77.941c0 42.417-34.464 77.412-77.941 77.412z" p-id="2055"></path></svg>