<?xml version="1.0" encoding="UTF-8" standalone="no"?>
<svg width="17px" height="16px" viewBox="0 0 17 16" version="1.1" xmlns="http://www.w3.org/2000/svg" xmlns:xlink="http://www.w3.org/1999/xlink">
    <!-- Generator: Sketch 42 (36781) - http://www.bohemiancoding.com/sketch -->
    <title>SVG放大镜</title>
    <desc>Created with Sketch.</desc>
    <defs></defs>
    <g id="网站页面第一版" stroke="none" stroke-width="1" fill="none" fill-rule="evenodd">
        <path d="M15.6989823,13.0896442 L11.5699219,8.95902946 C12.0111934,8.11282477 12.2662244,7.15301812 12.2662244,6.13291315 C12.2662244,2.7511652 9.51428199,0 6.13329226,0 C2.75036905,0 0,2.75114623 0,6.13291315 C0,9.5146611 2.75036905,12.2658263 6.13329226,12.2658263 C7.25539825,12.2658263 8.30562393,11.9574538 9.212108,11.4281327 L13.2863104,15.5022972 C13.6186051,15.8346109 14.0560096,16 14.4926748,16 C14.92934,16 15.3666876,15.8346109 15.6990202,15.5022972 C16.0212683,15.180049 16.1997938,14.7511367 16.1997938,14.2951935 C16.1997559,13.8392313 16.0212304,13.410338 15.6989823,13.0896442 M0.791365642,6.13291315 C0.791365642,3.18779249 3.18741336,0.791346692 6.13331121,0.791346692 C9.07767364,0.791346692 11.4748966,3.18779249 11.4748966,6.13291315 C11.4748966,7.97061855 10.5405855,9.59505255 9.12326227,10.5563757 C9.10390842,10.5640907 9.08849737,10.5795775 9.06995864,10.5903823 C8.22682478,11.1468101 7.21756251,11.4744796 6.13333016,11.4744796 C3.18741336,11.4744796 0.791365642,9.07882995 0.791365642,6.13291315 M15.1394837,14.9427986 C14.7824517,15.2982951 14.2028599,15.2982951 13.8458279,14.9427986 L9.88060231,10.9768147 C10.3651498,10.601244 10.7917305,10.1561055 11.1456538,9.65379649 L15.1394647,13.6491239 C15.3125688,13.8207116 15.4084092,14.0509863 15.4084092,14.2951935 C15.4084092,14.5394008 15.3125878,14.7696944 15.1394837,14.9427986" id="SVG放大镜" fill="#C2C2C2" fill-rule="nonzero"></path>
    </g>
</svg>