<?xml version="1.0" encoding="UTF-8" standalone="no"?>
<svg width="18px" height="17px" viewBox="0 0 18 17" version="1.1" xmlns="http://www.w3.org/2000/svg" xmlns:xlink="http://www.w3.org/1999/xlink">
    <!-- Generator: Sketch 42 (36781) - http://www.bohemiancoding.com/sketch -->
    <title>SVG钱包</title>
    <desc>Created with Sketch.</desc>
    <defs></defs>
    <g id="网站页面第一版" stroke="none" stroke-width="1" fill="none" fill-rule="evenodd">
        <path d="M3.37486735,9.17548552 C2.75389428,9.17548552 2.24992662,9.68776233 2.24992662,10.3204992 C2.24992662,10.953236 2.75391686,11.4655128 3.37486735,11.4655128 C3.99581783,11.4655128 4.49915328,10.953236 4.49915328,10.3204992 C4.49915328,9.68776233 3.99516303,9.17548552 3.37486735,9.17548552 Z M17.9882362,4.34267945 C17.9972228,3.91968078 17.8850719,2.93181835 16.6209756,2.58773398 L3.92868988,0 C2.9989463,0 2.24229485,0.770492502 2.24229485,1.71753174 L2.24229485,4.02074526 L1.68016317,4.02004531 C0.753174259,4.02422246 0,4.79193772 0,5.7368771 L0,14.8964443 C0,15.8441609 0.756651455,16.614676 1.68709499,16.614676 L16.312905,16.614676 C17.2433034,16.614676 18,15.8441835 18,14.8971442 L17.9882137,4.34263429 L17.9882362,4.34267945 Z M3.36653562,1.71753174 C3.36653562,1.41847028 3.59291465,1.17269573 3.88021234,1.14709092 L16.283823,3.70368819 C16.2886775,3.70646543 16.1910451,4.02492242 15.7410869,4.01866798 L3.36658078,4.01866798 L3.36658078,1.71750916 L3.36653562,1.71753174 Z M16.8750141,14.8971894 C16.8750141,15.2128691 16.6230077,15.4697075 16.3121825,15.4697075 L1.68704983,15.4697075 C1.37692456,15.4697075 1.1242182,15.2128917 1.1242182,14.8971894 L1.1242182,5.73692225 C1.1242182,5.42124251 1.37622461,5.16440415 1.68704983,5.16440415 L15.7438189,5.16440415 C16.2962641,5.16440415 16.8756915,4.97333899 16.8756915,4.59396333 L16.8756915,14.8971894 L16.8750141,14.8971894 Z" id="SVG钱包" fill="#3EBCD0" fill-rule="nonzero" transform="translate(9.000000, 8.307338) scale(-1, 1) translate(-9.000000, -8.307338) "></path>
    </g>
</svg>